<?xml version="1.0" standalone="no"?>
<!DOCTYPE svg PUBLIC "-//W3C//DTD SVG 20010904//EN"
 "http://www.w3.org/TR/2001/REC-SVG-20010904/DTD/svg10.dtd">
<svg version="1.0" xmlns="http://www.w3.org/2000/svg"
 width="260.000000pt" height="260.000000pt" viewBox="0 0 260.000000 260.000000"
 preserveAspectRatio="xMidYMid meet">
<metadata>
Created by potrace 1.14, written by Peter Selinger 2001-2017
</metadata>
<g transform="translate(0.000000,260.000000) scale(0.100000,-0.100000)"
fill="#000000" stroke="none">
<path d="M0 1832 l0 -769 50 25 c61 30 105 25 155 -19 53 -47 78 -94 72 -135
-5 -32 -4 -34 24 -34 42 0 74 -24 126 -97 58 -81 66 -127 29 -170 -29 -34
-219 -183 -234 -183 -5 0 -58 64 -116 142 l-106 142 0 -367 0 -367 486 0 c385
0 484 3 478 13 -4 6 -40 55 -80 108 -119 158 -194 278 -195 313 -3 91 11 131
71 198 82 94 232 139 316 95 33 -17 110 -98 162 -171 l31 -42 -90 -67 c-49
-37 -93 -67 -97 -67 -5 0 -39 41 -76 91 -68 90 -87 102 -109 67 -13 -19 2 -41
191 -293 89 -120 134 -171 150 -173 43 -6 37 26 -23 114 -32 46 -56 86 -54 87
2 2 40 30 84 62 44 32 85 62 91 66 11 9 79 -83 118 -158 30 -60 15 -174 -31
-225 -15 -17 8 -18 580 -18 l597 0 0 435 c0 417 -1 436 -19 454 -20 20 -20 20
-31 -13 -11 -34 -59 -85 -97 -105 -12 -6 -40 -11 -63 -11 -36 0 -48 6 -90 47
-63 62 -295 381 -310 428 -28 85 62 194 163 195 l27 0 -56 75 c-32 43 -53 79
-48 84 26 23 165 121 172 121 4 0 84 -104 177 -231 l170 -231 3 483 c1 265 1
484 -1 485 -2 2 -25 -8 -52 -21 -80 -41 -129 -30 -189 41 l-26 32 48 38 c26
20 52 41 57 46 6 5 -17 6 -55 2 -88 -9 -130 9 -170 72 -33 53 -39 108 -15 140
8 10 15 22 15 27 0 4 -497 7 -1105 7 l-1105 0 0 -768z m2147 613 c12 -9 31
-28 42 -44 l21 -29 -55 -41 c-30 -22 -57 -41 -60 -41 -3 0 -17 12 -30 28 -18
21 -26 24 -36 15 -15 -15 35 -68 57 -59 9 3 52 9 97 12 81 6 83 5 119 -25 48
-41 82 -111 74 -154 -9 -47 -58 -101 -118 -131 -59 -30 -96 -33 -138 -11 -36
18 -87 84 -74 93 36 24 104 76 104 79 0 2 -28 1 -63 -3 -80 -8 -125 10 -166
66 -40 55 -46 90 -26 134 20 41 74 92 119 112 42 18 107 17 133 -1z m-299
-229 c29 -15 63 -50 105 -107 l27 -35 -80 -59 -79 -58 31 -44 c17 -23 39 -50
49 -59 17 -16 19 -16 25 0 4 10 -5 33 -22 59 -16 23 -29 45 -29 48 0 9 103 89
114 89 17 0 72 -88 78 -124 8 -52 -13 -101 -64 -145 -73 -65 -153 -78 -217
-36 -36 24 -178 213 -195 260 -18 52 -6 99 37 147 63 70 157 97 220 64z m-315
-224 c27 -23 267 -339 267 -350 0 -9 -114 -95 -125 -94 -4 1 -50 59 -103 130
-53 70 -109 143 -124 160 -26 31 -48 41 -48 23 0 -10 85 -130 176 -249 35 -45
64 -86 64 -91 0 -9 -101 -88 -118 -93 -11 -3 -314 391 -310 403 2 4 30 28 63
53 40 30 63 41 71 35 8 -7 14 -2 18 15 18 73 116 106 169 58z m-404 -131 c12
-16 21 -34 21 -39 0 -6 -28 -31 -62 -57 l-63 -46 -27 33 c-16 18 -28 35 -28
38 1 7 123 99 132 100 4 0 16 -13 27 -29z m200 -266 l151 -200 -28 -22 c-15
-13 -45 -36 -68 -52 l-40 -30 -152 203 c-84 112 -152 206 -152 209 0 8 123 98
132 95 4 -2 75 -93 157 -203z m-269 -1 c22 -20 40 -42 40 -48 0 -11 -92 -86
-107 -86 -4 0 -19 12 -35 27 -25 24 -28 25 -34 8 -11 -29 32 -58 76 -51 113
18 145 17 176 -3 81 -50 116 -149 76 -213 -38 -61 -119 -108 -185 -108 -38 0
-49 5 -85 42 -23 23 -42 47 -42 52 1 11 78 72 104 82 8 3 23 -8 36 -25 12 -17
28 -31 36 -31 20 0 17 34 -5 54 -16 14 -32 16 -113 10 -114 -8 -144 4 -189 74
-46 73 -36 128 37 192 47 41 89 59 136 60 30 0 47 -8 78 -36z m-392 -84 c12
-16 22 -33 22 -37 -1 -4 -29 -29 -63 -55 l-62 -48 -27 32 c-16 18 -28 35 -28
39 0 8 120 99 130 99 3 0 16 -13 28 -30z m171 -225 c68 -91 136 -182 152 -203
l28 -39 -63 -46 c-35 -26 -68 -47 -72 -46 -10 0 -291 369 -300 393 -5 14 100
105 121 105 6 0 66 -74 134 -164z m-145 -163 c75 -100 139 -189 142 -196 6
-15 -107 -108 -125 -104 -6 2 -17 -8 -24 -22 -16 -32 -73 -70 -104 -70 -14 0
-38 9 -53 20 -27 19 -265 324 -275 352 -4 12 102 98 122 98 5 0 51 -57 103
-127 107 -144 148 -193 161 -193 22 0 2 32 -107 177 -63 85 -117 159 -119 166
-2 7 24 33 58 58 46 35 65 44 73 35 6 -6 73 -93 148 -194z m1284 59 c40 -55
72 -102 72 -104 0 -3 -13 -19 -30 -37 -52 -56 -52 -57 108 -278 57 -79 103
-145 101 -147 -27 -25 -173 -125 -179 -123 -9 3 -409 544 -417 564 -4 12 155
134 175 134 6 0 14 -10 18 -22 6 -20 9 -16 24 29 17 51 36 83 49 83 4 0 39
-45 79 -99z m-399 -231 c56 -16 96 -61 304 -344 l117 -158 -72 -55 c-101 -76
-107 -78 -124 -56 -13 17 -13 17 -14 -5 -1 -61 -71 -122 -149 -130 -47 -4 -51
-2 -98 41 -27 25 -65 74 -86 109 -46 78 -45 88 31 222 l55 98 -18 34 c-25 47
-59 76 -78 68 -25 -9 -22 -19 25 -85 22 -33 39 -62 36 -64 -3 -3 -41 -32 -84
-65 l-79 -60 -23 28 c-38 45 -72 124 -72 164 0 100 102 216 223 254 52 16 64
16 106 4z"/>
<path d="M2169 2122 c18 -33 51 -56 63 -44 17 17 -17 62 -48 62 -20 0 -23 -3
-15 -18z"/>
<path d="M1720 2104 c0 -4 9 -22 21 -41 17 -27 24 -31 35 -22 11 9 10 16 -9
40 -20 25 -47 38 -47 23z"/>
<path d="M1614 546 c-7 -29 15 -80 56 -124 32 -35 48 -40 57 -16 5 14 -75 146
-98 160 -5 2 -11 -6 -15 -20z"/>
<path d="M2447 2553 l-58 -45 -30 28 c-35 34 -62 22 -32 -15 21 -25 29 -26
140 -16 69 7 86 5 108 -9 l25 -16 0 60 0 60 -47 0 c-41 -1 -56 -7 -106 -47z"/>
<path d="M2470 2330 c27 -37 39 -45 52 -32 17 17 -17 62 -48 62 l-25 0 21 -30z"/>
<path d="M2210 1335 c-15 -18 -17 -15 137 -222 62 -84 119 -153 127 -153 25 0
28 19 9 53 -29 48 -217 299 -240 320 -18 16 -22 16 -33 2z"/>
<path d="M60 949 c0 -15 59 -89 71 -89 18 0 8 39 -17 69 -26 31 -54 41 -54 20z"/>
<path d="M197 772 c-3 -4 15 -35 41 -69 35 -48 49 -60 59 -52 15 13 6 33 -39
92 -28 35 -51 46 -61 29z"/>
</g>
</svg>
